<svg width="53" height="53" viewBox="0 0 53 53" fill="none" xmlns="http://www.w3.org/2000/svg">
<path fill-rule="evenodd" clip-rule="evenodd" d="M11.6476 22.362C11.0415 23.6798 11.0415 25.179 11.0415 28.1773V37.5415C11.0415 41.7056 11.0415 43.7876 12.3351 45.0813C13.6287 46.3749 15.7108 46.3749 19.8748 46.3749H19.979V35.333C19.9792 33.5614 21.4154 32.1252 23.187 32.125H29.812C31.5838 32.125 33.0208 33.5612 33.021 35.333V46.3749H33.1248C37.2889 46.3749 39.3709 46.3749 40.6646 45.0813C41.9582 43.7876 41.9582 41.7056 41.9582 37.5415V28.1773C41.9582 25.179 41.9582 23.6798 41.3521 22.362C40.746 21.0442 39.6077 20.0685 37.3312 18.1172L35.1228 16.2243C31.008 12.6973 28.9506 10.9338 26.4998 10.9338C24.0491 10.9338 21.9917 12.6973 17.8769 16.2243L15.6685 18.1172L15.6685 18.1172C13.392 20.0685 12.2537 21.0442 11.6476 22.362ZM31.021 46.3749V35.333C31.0208 34.6658 30.4792 34.125 29.812 34.125H23.187C22.5199 34.1252 21.9792 34.6659 21.979 35.333V46.3749H31.021Z" fill="#222222"/>
</svg>
